<?xml version="1.0" encoding="iso-8859-1"?>
<!-- Uploaded to: SVG Repo, www.svgrepo.com, Generator: SVG Repo Mixer Tools -->
<svg version="1.1" id="Layer_1" xmlns="http://www.w3.org/2000/svg" xmlns:xlink="http://www.w3.org/1999/xlink" 
	 viewBox="0 0 512 512" xml:space="preserve">
<path style="fill:#8B8B8B;" d="M177.891,0v82.234h-55.699V0C87.907,11.609,63.219,44.028,63.219,82.234
	c0,29.679,14.901,55.868,37.621,71.528v88.134h98.406v-88.134c22.719-15.658,37.621-41.848,37.621-71.528
	C236.867,44.028,212.177,11.609,177.891,0z"/>
<path style="fill:#6F6F6F;" d="M177.891,0v82.234h-27.849v159.661h49.203V153.76c22.719-15.658,37.621-41.848,37.621-71.528
	C236.867,44.028,212.177,11.609,177.891,0z"/>
<rect x="327.402" y="99.662" style="fill:#E69824;" width="71.067" height="142.225"/>
<rect x="362.941" y="99.662" style="fill:#DD5323;" width="35.533" height="142.225"/>
<path style="fill:#444444;" d="M497.618,112.408H276.051V0h143.998L497.618,112.408z"/>
<path style="fill:#282828;" d="M497.618,112.408H362.937V0h57.112L497.618,112.408z"/>
<path style="fill:#3D6DFA;" d="M506.215,512H5.784V225.199h500.43V512H506.215z"/>
<path style="fill:#2B3D7B;" d="M506.215,512H256V225.199h250.215L506.215,512L506.215,512z"/>
</svg>